<svg width="47" height="47" viewBox="0 0 47 47" fill="none" xmlns="http://www.w3.org/2000/svg">
<g id="fluent:add-12-filled">
<path id="Vector" d="M25.4584 6.85416C25.4584 6.07508 25.1489 5.32792 24.598 4.77703C24.0471 4.22614 23.2999 3.91666 22.5209 3.91666C21.7418 3.91666 20.9946 4.22614 20.4437 4.77703C19.8928 5.32792 19.5834 6.07508 19.5834 6.85416V19.5833H6.85419C6.07511 19.5833 5.32795 19.8928 4.77706 20.4437C4.22617 20.9946 3.91669 21.7417 3.91669 22.5208C3.91669 23.2999 4.22617 24.0471 4.77706 24.5979C5.32795 25.1488 6.07511 25.4583 6.85419 25.4583H19.5834V38.1875C19.5834 38.9666 19.8928 39.7137 20.4437 40.2646C20.9946 40.8155 21.7418 41.125 22.5209 41.125C23.2999 41.125 24.0471 40.8155 24.598 40.2646C25.1489 39.7137 25.4584 38.9666 25.4584 38.1875V25.4583H38.1875C38.9666 25.4583 39.7138 25.1488 40.2646 24.5979C40.8155 24.0471 41.125 23.2999 41.125 22.5208C41.125 21.7417 40.8155 20.9946 40.2646 20.4437C39.7138 19.8928 38.9666 19.5833 38.1875 19.5833H25.4584V6.85416Z" fill="white"/>
</g>
</svg>
